<?xml version="1.0" standalone="no"?>
<!DOCTYPE svg PUBLIC "-//W3C//DTD SVG 20010904//EN"
 "http://www.w3.org/TR/2001/REC-SVG-20010904/DTD/svg10.dtd">
<svg version="1.0" xmlns="http://www.w3.org/2000/svg"
 width="512.000000pt" height="512.000000pt" viewBox="0 0 512.000000 512.000000"
 preserveAspectRatio="xMidYMid meet">
<metadata>
Created by potrace 1.14, written by Peter Selinger 2001-2017
</metadata>
<g transform="translate(0.000000,512.000000) scale(0.100000,-0.100000)"
fill="#000000" stroke="none">
<path d="M4680 5104 c-41 -6 -95 -14 -120 -17 -25 -4 -56 -8 -70 -11 -14 -3
-47 -7 -75 -10 -27 -3 -61 -8 -75 -10 -14 -3 -45 -8 -70 -11 -136 -16 -180
-22 -220 -30 -14 -2 -45 -7 -70 -10 -25 -3 -54 -7 -65 -9 -21 -4 -79 -12 -162
-22 -27 -3 -55 -7 -63 -9 -8 -2 -42 -7 -75 -11 -33 -3 -67 -7 -75 -9 -8 -1
-40 -6 -70 -10 -30 -4 -64 -9 -75 -11 -11 -2 -40 -6 -65 -9 -25 -3 -54 -8 -65
-10 -11 -2 -47 -7 -80 -10 -33 -4 -67 -8 -75 -10 -16 -5 -57 -11 -135 -20 -27
-3 -77 -10 -110 -15 -33 -5 -82 -12 -110 -15 -27 -4 -57 -8 -65 -10 -8 -2 -42
-7 -75 -11 -33 -3 -69 -8 -80 -10 -19 -4 -52 -9 -132 -19 -64 -7 -117 -15
-140 -20 l-23 -5 0 -940 0 -940 1280 0 1280 0 0 1120 0 1120 -22 -2 c-13 -1
-57 -8 -98 -14z"/>
<path d="M1889 4716 c-4 -4 -40 -10 -139 -22 -25 -3 -58 -8 -75 -11 -16 -2
-46 -6 -65 -9 -19 -2 -46 -6 -60 -9 -14 -2 -49 -7 -79 -10 -30 -4 -62 -8 -71
-10 -9 -2 -41 -6 -70 -10 -29 -4 -60 -8 -69 -10 -33 -6 -98 -15 -151 -20 -30
-4 -95 -13 -145 -20 -49 -8 -112 -17 -140 -20 -58 -7 -108 -14 -150 -20 -16
-3 -48 -7 -70 -10 -22 -3 -53 -7 -70 -10 -16 -3 -46 -7 -65 -9 -100 -13 -199
-27 -216 -30 -17 -3 -41 -7 -159 -22 -22 -2 -52 -7 -68 -10 l-27 -6 0 -784 0
-784 960 0 960 0 -2 917 c-3 867 -5 942 -29 919z"/>
<path d="M0 1776 l0 -784 28 -6 c15 -3 45 -8 67 -10 22 -3 59 -8 81 -11 23 -3
59 -8 80 -11 22 -3 50 -7 64 -9 14 -2 63 -8 110 -15 47 -6 96 -13 110 -15 14
-2 108 -16 210 -30 102 -14 196 -27 210 -30 42 -6 103 -14 150 -20 52 -6 183
-24 220 -30 43 -7 92 -14 180 -25 80 -10 99 -13 168 -25 15 -2 50 -7 77 -10
28 -3 66 -8 85 -11 19 -3 44 -6 55 -7 20 -2 20 5 23 916 l2 917 -960 0 -960 0
0 -784z"/>
<path d="M2242 1618 c3 -935 3 -943 23 -944 11 -1 22 -3 25 -4 6 -2 29 -5 110
-15 36 -4 67 -8 70 -10 3 -1 32 -6 65 -10 110 -12 130 -15 159 -21 15 -3 46
-7 67 -9 21 -2 51 -6 66 -9 28 -5 69 -11 153 -21 25 -3 77 -11 115 -16 39 -6
81 -12 95 -14 14 -2 43 -6 65 -9 22 -3 58 -8 80 -11 22 -3 50 -7 63 -10 13 -2
51 -7 85 -10 34 -4 64 -8 67 -10 3 -2 32 -6 64 -10 33 -3 62 -8 65 -10 3 -1
36 -6 73 -9 37 -4 75 -9 86 -11 26 -5 76 -12 137 -20 28 -4 61 -9 75 -11 25
-4 218 -30 275 -38 17 -2 53 -7 80 -10 28 -4 66 -9 85 -13 19 -3 44 -7 55 -8
11 -2 40 -6 65 -9 25 -4 65 -9 90 -12 25 -3 57 -8 73 -10 l27 -6 0 1121 0
1121 -1280 0 -1280 0 2 -942z"/>
</g>
</svg>
