<svg version="1.2" baseProfile="tiny-ps" xmlns="http://www.w3.org/2000/svg" viewBox="0 0 448 448" width="448" height="448">
	<title>user</title>
	<style>
		tspan { white-space:pre }
		.shp0 { fill: #e6e6e6 } 
		.shp1 { fill: #404040 } 
	</style>
	<g id="Background">
		<path id="Path 0" class="shp0" d="M0 224L0 448L448 448L448 0L0 0L0 224Z" />
		<path id="Path 1" class="shp1" d="M211 112.95C208.53 113.42 204.25 114.57 201.5 115.51C198.75 116.44 193.35 118.82 189.5 120.79C184.48 123.36 179.94 126.94 173.46 133.44C166.14 140.78 163.64 144.12 160.27 151C157.99 155.68 155.34 162.43 154.39 166C153.23 170.34 152.65 176.31 152.64 184C152.63 193.18 153.09 197.01 154.92 203C156.18 207.13 158.47 212.97 160 216C161.52 219.03 164.79 224.2 167.26 227.5C169.73 230.8 173.91 235.3 176.55 237.5C179.19 239.7 182.51 242.25 183.92 243.18L186.5 244.85C178.75 248.38 174.25 250.82 171.5 252.56C168.75 254.29 163.69 258.02 160.25 260.85C156.81 263.68 151.49 269.04 148.42 272.75C145.36 276.46 141 282.65 138.74 286.5C136.48 290.35 133.41 296.65 131.91 300.5C130.42 304.35 128.51 311.1 127.67 315.5C126.82 319.9 125.88 326.31 125.57 329.75L125 336L143.5 336.01C144.56 323.22 146.01 315.9 147.41 311.5C148.81 307.1 152.05 299.9 154.63 295.5C157.52 290.55 162.39 284.41 167.4 279.4C172.41 274.39 178.55 269.52 183.5 266.63C187.9 264.05 195.1 260.74 199.5 259.27C206.89 256.79 208.76 256.59 224 256.59C239.24 256.59 241.11 256.79 248.5 259.27C252.9 260.74 259.99 263.99 264.25 266.47C268.51 268.96 275.2 274.04 279.11 277.75C283.02 281.46 288.16 287.43 290.54 291C292.91 294.57 296 299.98 297.4 303C298.79 306.02 300.85 312.1 301.97 316.5C303.09 320.9 304.12 327.09 304.25 330.25L304.5 336L323 336C322.07 323.99 320.71 316.23 319.39 311C318.06 305.77 315.08 297.68 312.76 293C310.44 288.32 306.01 281.13 302.91 277C299.82 272.88 294.41 266.88 290.89 263.68C287.38 260.47 281.57 255.95 278 253.62C274.43 251.28 269.25 248.36 266.5 247.12L261.5 244.85C265.49 242.25 268.81 239.7 271.45 237.5C274.09 235.3 278.27 230.8 280.74 227.5C283.21 224.2 286.48 219.03 288 216C289.53 212.97 291.83 207.13 293.11 203C294.98 196.99 295.44 193.22 295.45 184C295.45 176.27 294.89 170.37 293.73 166C292.78 162.43 290.1 155.68 287.78 151C284.4 144.22 281.72 140.67 274.52 133.44C268.06 126.95 263.51 123.36 258.5 120.78C254.65 118.8 248.57 116.21 245 115.02C240.31 113.47 235.29 112.76 227 112.48C220.68 112.27 213.47 112.48 211 112.95Z" />
		<path id="Path 2" class="shp0" d="M212.5 131.49C209.2 132.23 204.47 133.73 202 134.83C199.53 135.93 195.03 138.69 192 140.96C188.97 143.22 184.76 147.2 182.64 149.79C180.51 152.38 177.75 156.53 176.49 159C175.24 161.47 173.43 166.2 172.48 169.5C171.38 173.28 170.76 178.83 170.78 184.5C170.81 191.3 171.4 195.21 173.21 200.5C174.52 204.35 177.38 210.16 179.55 213.42C181.72 216.67 185.53 221.11 188 223.28C190.47 225.45 194.75 228.53 197.5 230.12C200.25 231.72 205.43 233.93 209 235.03C213.35 236.38 218.31 237.04 224 237.04C229.69 237.04 234.65 236.38 239 235.03C242.57 233.93 247.75 231.72 250.5 230.12C253.25 228.53 257.52 225.45 260 223.28C262.48 221.11 266.28 216.67 268.45 213.42C270.62 210.16 273.4 204.57 274.62 201C275.84 197.43 277.13 191.57 277.5 188C277.95 183.57 277.65 179.11 276.57 174C275.7 169.88 273.7 163.8 272.14 160.5C270.57 157.2 267.54 152.38 265.4 149.79C263.25 147.2 259.02 143.22 256 140.96C252.97 138.69 248.47 135.93 246 134.83C243.53 133.74 238.57 132.21 235 131.44C231.43 130.67 226.25 130.06 223.5 130.1C220.75 130.13 215.8 130.76 212.5 131.49Z" />
	</g>
</svg>